<?xml version="1.0" encoding="utf-8"?><svg xmlns="http://www.w3.org/2000/svg" xmlns:xlink="http://www.w3.org/1999/xlink"><symbol viewBox="0 0 25 22" id="heart" xmlns="http://www.w3.org/2000/svg"><path d="M17.9 0c-2.5 0-4.6 1.4-5.7 3.5C11.1 1.4 9 0 6.5 0 2.9 0 0 3 0 6.7c0 1.1.3 2.2.8 3.1 0 .1.2.4.5.8.2.3.4.5.7.8C4.9 14.8 12.3 22 12.3 22s7.4-7.2 10.3-10.6c.2-.2.5-.5.7-.8.3-.4.5-.7.5-.8.5-.9.8-2 .8-3.1C24.4 3 21.5 0 17.9 0z"/></symbol><symbol viewBox="0 0 8 2" id="minus" xmlns="http://www.w3.org/2000/svg"><path d="M.85 1.667V.276h6.3v1.391H.85z"/></symbol><symbol viewBox="0 0 9 8" id="plus" xmlns="http://www.w3.org/2000/svg"><path d="M3.833 4.364H.918V3.06h2.915V.072h1.319V3.06h2.922v1.304H5.152v2.973H3.833V4.364z"/></symbol><symbol viewBox="0 0 17 17" id="tooltip" xmlns="http://www.w3.org/2000/svg"><path d="M11.605 4.861c.133.313.206.666.206 1.065 0 .18-.013.347-.04.5a2.446 2.446 0 0 1-.313.852 2.86 2.86 0 0 1-.273.386 5.054 5.054 0 0 1-.426.433c-.18.167-.4.347-.659.546-.22.173-.4.327-.546.473-.146.147-.26.273-.333.386a1.204 1.204 0 0 0-.166.4 2.426 2.426 0 0 0-.053.513v.32H7.617v-.454c0-.26.026-.499.073-.712.047-.213.12-.413.213-.58.093-.173.226-.346.386-.525.16-.18.366-.36.6-.547.28-.22.512-.419.692-.592.18-.173.313-.32.393-.44.08-.12.14-.26.18-.406.04-.146.06-.306.06-.473a1.3 1.3 0 0 0-.1-.526.996.996 0 0 0-.3-.386 1.33 1.33 0 0 0-.486-.24 2.447 2.447 0 0 0-.66-.08c-.226 0-.439.014-.645.047a3.58 3.58 0 0 0-.6.147 7.99 7.99 0 0 0-.565.213c-.187.08-.373.16-.553.246l-.3-.62-.3-.619a6.31 6.31 0 0 1 1.486-.599 6.316 6.316 0 0 1 1.59-.2c.46 0 .88.054 1.246.167.366.113.686.28.959.506.28.213.486.486.619.799zm-3.25 7.045c-.345 0-.605.087-.778.266-.173.18-.26.447-.26.8 0 .173.02.326.067.46.046.132.113.245.2.345.086.094.2.167.326.213.126.047.28.074.446.074.166 0 .313-.027.446-.074a.81.81 0 0 0 .333-.22.96.96 0 0 0 .206-.346 1.35 1.35 0 0 0 .067-.452c0-.167-.02-.32-.067-.453a.955.955 0 0 0-.2-.34.829.829 0 0 0-.326-.206 1.365 1.365 0 0 0-.46-.067zm6.133-9.416a8.467 8.467 0 0 1 2.49 6 8.467 8.467 0 0 1-2.49 6 8.464 8.464 0 0 1-5.999 2.49 8.453 8.453 0 0 1-5.999-2.49 8.455 8.455 0 0 1-2.49-6c0-2.344.952-4.461 2.49-6a8.465 8.465 0 0 1 6-2.49c2.344 0 4.46.952 5.999 2.49zm-.986 11.014A7.066 7.066 0 0 0 15.58 8.49a7.066 7.066 0 0 0-2.078-5.014A7.064 7.064 0 0 0 8.49 1.398a7.064 7.064 0 0 0-5.014 2.078A7.066 7.066 0 0 0 1.398 8.49c0 1.958.792 3.73 2.077 5.014a7.064 7.064 0 0 0 5.014 2.078 7.064 7.064 0 0 0 5.013-2.078z"/></symbol></svg>